<svg xmlns="http://www.w3.org/2000/svg" width="1055" height="1491" viewBox="0 0 1055 1491" role="img" aria-labelledby="title desc">
  <title id="title">《潮退以前》封面</title>
  <desc id="desc">澜河市现代现实情感小说封面，雨后的地铁口、城中村围挡和远处厂区灯光。</desc>
  <defs>
    <linearGradient id="sky" x1="0" x2="0" y1="0" y2="1">
      <stop offset="0" stop-color="#27384a"/>
      <stop offset="0.45" stop-color="#6f7f82"/>
      <stop offset="1" stop-color="#d2a86c"/>
    </linearGradient>
    <linearGradient id="road" x1="0" x2="0" y1="0" y2="1">
      <stop offset="0" stop-color="#394447"/>
      <stop offset="1" stop-color="#171b1f"/>
    </linearGradient>
    <filter id="soft" x="-20%" y="-20%" width="140%" height="140%">
      <feGaussianBlur stdDeviation="10"/>
    </filter>
  </defs>
  <rect width="1055" height="1491" fill="#15202a"/>
  <rect width="1055" height="920" fill="url(#sky)"/>
  <circle cx="820" cy="220" r="110" fill="#f4d3a0" opacity="0.38" filter="url(#soft)"/>
  <path d="M0 705 C170 660 312 696 480 650 C674 596 820 620 1055 565 L1055 930 L0 930 Z" fill="#26333a" opacity="0.92"/>
  <path d="M0 805 C215 760 356 790 538 735 C720 680 878 700 1055 645 L1055 965 L0 965 Z" fill="#1f2a30" opacity="0.92"/>
  <g opacity="0.88">
    <rect x="88" y="512" width="86" height="260" fill="#2b363a"/>
    <rect x="190" y="468" width="108" height="306" fill="#354044"/>
    <rect x="322" y="535" width="76" height="238" fill="#2c373c"/>
    <rect x="792" y="455" width="105" height="320" fill="#29343b"/>
    <rect x="915" y="498" width="70" height="274" fill="#334047"/>
  </g>
  <g fill="#f8d28c" opacity="0.72">
    <rect x="112" y="552" width="18" height="22"/>
    <rect x="146" y="610" width="18" height="22"/>
    <rect x="220" y="520" width="20" height="24"/>
    <rect x="260" y="632" width="20" height="24"/>
    <rect x="818" y="512" width="20" height="24"/>
    <rect x="856" y="604" width="20" height="24"/>
  </g>
  <rect x="0" y="885" width="1055" height="606" fill="url(#road)"/>
  <path d="M100 1491 L470 890 L560 890 L742 1491 Z" fill="#23292c"/>
  <path d="M508 930 L430 1491" stroke="#c8aa73" stroke-width="6" opacity="0.55"/>
  <path d="M548 930 L628 1491" stroke="#c8aa73" stroke-width="6" opacity="0.45"/>
  <g opacity="0.95">
    <rect x="120" y="782" width="332" height="92" rx="4" fill="#c75f43"/>
    <rect x="144" y="806" width="284" height="18" fill="#f1c391" opacity="0.8"/>
    <rect x="144" y="842" width="214" height="12" fill="#f1c391" opacity="0.55"/>
    <path d="M126 875 L448 875" stroke="#f3d7ac" stroke-width="5" opacity="0.46"/>
  </g>
  <g opacity="0.88">
    <rect x="640" y="760" width="248" height="70" rx="35" fill="#d9c08e"/>
    <rect x="685" y="785" width="106" height="10" fill="#28333a" opacity="0.55"/>
    <circle cx="672" cy="854" r="22" fill="#171b1f"/>
    <circle cx="850" cy="854" r="22" fill="#171b1f"/>
  </g>
  <g stroke="#e7eef0" stroke-width="3" opacity="0.28">
    <path d="M0 960 C260 930 520 930 1055 960"/>
    <path d="M0 1038 C280 1006 540 1008 1055 1038"/>
    <path d="M0 1116 C280 1088 540 1088 1055 1116"/>
  </g>
  <text x="112" y="218" fill="#fff7e8" font-family="Noto Serif SC, Source Han Serif SC, SimSun, serif" font-size="128" font-weight="700" letter-spacing="0">潮退以前</text>
  <text x="118" y="300" fill="#f0d3ad" font-family="Noto Serif SC, Source Han Serif SC, SimSun, serif" font-size="34" letter-spacing="6">现代现实情感小说</text>
  <text x="118" y="376" fill="#fff7e8" opacity="0.9" font-family="Noto Serif SC, Source Han Serif SC, SimSun, serif" font-size="32">钱像潮水，不是你想不想下水的问题。</text>
  <text x="118" y="1328" fill="#f6dec0" font-family="Noto Serif SC, Source Han Serif SC, SimSun, serif" font-size="34">观流夫</text>
</svg>
